<?xml version="1.0" standalone="no"?>
<!DOCTYPE svg PUBLIC "-//W3C//DTD SVG 20010904//EN"
 "http://www.w3.org/TR/2001/REC-SVG-20010904/DTD/svg10.dtd">
<svg version="1.0" xmlns="http://www.w3.org/2000/svg"
 width="232.000000pt" height="232.000000pt" viewBox="0 0 232.000000 232.000000"
 preserveAspectRatio="xMidYMid meet">

<g transform="translate(0.000000,232.000000) scale(0.100000,-0.100000)"
fill="#000000" stroke="none">
<path d="M442 2300 c-168 -44 -307 -158 -380 -310 -22 -47 -45 -112 -51 -144
-15 -83 -15 -1306 0 -1378 6 -29 29 -91 50 -136 71 -153 213 -268 385 -312 73
-19 113 -20 714 -20 601 0 641 1 714 20 110 28 190 73 272 155 81 80 145 197
163 299 7 38 11 287 11 691 0 596 -1 636 -20 709 -28 110 -74 190 -155 271
-81 81 -161 127 -271 155 -73 19 -112 20 -718 19 -598 0 -646 -1 -714 -19z
m897 -445 c227 -59 411 -225 491 -443 43 -118 57 -229 42 -341 -24 -175 -82
-290 -213 -422 -70 -71 -102 -94 -170 -127 -127 -61 -194 -76 -334 -76 -212 1
-347 57 -501 209 -76 75 -98 104 -132 175 -75 158 -98 313 -69 469 46 237 229
453 454 532 139 50 300 58 432 24z"/>
<path d="M1001 1790 c-144 -39 -261 -112 -339 -212 l-41 -53 112 -3 c61 -1
116 -7 121 -12 16 -16 -14 -40 -49 -40 -17 0 -34 -3 -37 -6 -4 -3 46 -161 109
-350 64 -190 119 -342 123 -337 4 4 37 98 74 209 l67 201 -47 129 c-26 71 -51
134 -56 141 -5 7 -26 13 -46 15 -30 2 -38 8 -40 26 l-3 22 196 0 196 0 -3 -22
c-2 -18 -11 -24 -38 -26 -19 -2 -39 -7 -43 -11 -6 -6 214 -675 226 -687 2 -2
27 79 57 179 75 250 75 281 -3 430 -33 62 -57 121 -57 138 0 48 27 89 72 109
l41 18 -44 32 c-115 84 -221 121 -364 126 -88 3 -125 0 -184 -16z"/>
<path d="M1728 1368 c-6 -89 -3 -81 -147 -496 -50 -145 -91 -266 -91 -268 0
-14 96 65 152 124 74 81 121 170 150 286 28 108 21 250 -15 350 -37 99 -44
100 -49 4z"/>
<path d="M540 1353 c-33 -102 -38 -238 -12 -340 35 -140 113 -271 205 -346 54
-44 128 -90 134 -84 4 5 -292 826 -302 835 -2 2 -13 -27 -25 -65z"/>
<path d="M1075 828 c-50 -145 -91 -270 -93 -279 -7 -35 188 -50 312 -24 38 8
71 17 74 20 6 5 -190 545 -198 545 -3 0 -46 -118 -95 -262z"/>
</g>
</svg>
