<?xml version="1.0" encoding="UTF-8"?>
<svg xmlns="http://www.w3.org/2000/svg" xmlns:xlink="http://www.w3.org/1999/xlink" width="290px" height="290px" viewBox="0 0 290 290" version="1.1">
<g id="surface1">
<path style=" stroke:none;fill-rule:nonzero;fill:rgb(0%,0%,0%);fill-opacity:1;" d="M 67.796875 11.667969 C 67.570312 11.894531 67.402344 20.050781 67.402344 29.851562 L 67.402344 47.578125 L 79.863281 47.578125 L 79.863281 35.683594 L 90.625 35.683594 L 90.625 47.578125 L 102.519531 47.578125 L 102.519531 11.328125 L 90.625 11.328125 L 90.625 23.222656 L 79.921875 23.222656 L 79.75 17.390625 L 79.578125 11.609375 L 73.859375 11.441406 C 70.742188 11.382812 68.023438 11.441406 67.796875 11.667969 Z M 67.796875 11.667969 "/>
<path style=" stroke:none;fill-rule:nonzero;fill:rgb(0%,0%,0%);fill-opacity:1;" d="M 108.183594 17.273438 L 108.183594 23.222656 L 118.378906 23.222656 L 118.378906 47.578125 L 130.839844 47.578125 L 130.839844 23.222656 L 141.65625 23.222656 L 141.488281 17.390625 L 141.320312 11.609375 L 124.78125 11.441406 L 108.183594 11.328125 Z M 108.183594 17.273438 "/>
<path style=" stroke:none;fill-rule:nonzero;fill:rgb(0%,0%,0%);fill-opacity:1;" d="M 146.699219 29.453125 L 146.699219 47.578125 L 158.539062 47.578125 L 158.707031 38.96875 L 158.875 30.414062 L 162.785156 36.476562 C 164.9375 39.820312 166.863281 42.367188 167.148438 42.085938 C 167.375 41.859375 169.242188 39.082031 171.28125 35.96875 L 175.019531 30.304688 L 175.019531 47.578125 L 187.480469 47.578125 L 187.367188 29.566406 L 187.195312 11.609375 L 180.96875 11.441406 L 174.734375 11.273438 L 171.109375 17.273438 C 169.070312 20.5625 167.316406 23.390625 167.089844 23.507812 C 166.863281 23.617188 165.050781 21.015625 163.011719 17.671875 L 159.328125 11.609375 L 153.042969 11.441406 L 146.699219 11.273438 Z M 146.699219 29.453125 "/>
<path style=" stroke:none;fill-rule:nonzero;fill:rgb(0%,0%,0%);fill-opacity:1;" d="M 193.144531 29.453125 L 193.144531 47.578125 L 222.03125 47.578125 L 222.03125 35.683594 L 205.605469 35.683594 L 205.492188 23.617188 L 205.320312 11.609375 L 199.261719 11.441406 L 193.144531 11.273438 Z M 193.144531 29.453125 "/>
<path style=" stroke:none;fill-rule:nonzero;fill:rgb(0%,0%,0%);fill-opacity:1;" d="M 50.410156 64.398438 C 50.410156 65.816406 67.460938 256.808594 67.570312 256.976562 C 67.628906 257.035156 85.074219 261.90625 106.3125 267.796875 L 144.945312 278.558594 L 183.628906 267.796875 C 204.867188 261.90625 222.3125 257.035156 222.371094 256.976562 C 222.539062 256.808594 239.589844 65.816406 239.589844 64.398438 C 239.589844 63.492188 234.71875 63.4375 145 63.4375 C 55.28125 63.4375 50.410156 63.492188 50.410156 64.398438 Z M 204.246094 105.75 C 204.078125 107.277344 203.679688 111.75 203.339844 115.828125 C 203 119.851562 202.601562 124.042969 202.433594 125.007812 L 202.148438 126.875 L 111.582031 126.875 L 111.640625 128.96875 C 111.640625 130.160156 112.09375 135.597656 112.601562 141.035156 L 113.5625 150.945312 L 156.78125 151.117188 L 199.941406 151.230469 L 199.941406 152.53125 C 199.941406 156.101562 193.65625 223.445312 193.3125 223.789062 C 193.03125 224.015625 182.15625 227.1875 169.070312 230.8125 L 145.28125 237.4375 L 121.210938 230.753906 C 107.957031 227.128906 96.96875 223.957031 96.796875 223.789062 C 96.570312 223.617188 95.722656 215.800781 94.929688 206.453125 C 94.136719 197.109375 93.34375 188.613281 93.230469 187.59375 L 92.945312 185.78125 L 104.84375 185.78125 C 113.90625 185.78125 116.679688 185.953125 116.679688 186.460938 C 116.679688 190.03125 118.546875 205.378906 119 205.664062 C 119.90625 206.226562 144.039062 212.628906 145 212.570312 C 145.851562 212.460938 171.167969 205.664062 171.394531 205.4375 C 171.679688 205.09375 174.054688 175.585938 173.828125 175.359375 C 173.660156 175.1875 155.195312 174.851562 132.765625 174.679688 L 91.984375 174.28125 L 88.984375 139.960938 C 87.339844 121.097656 85.867188 105.070312 85.695312 104.332031 L 85.414062 103.085938 L 204.585938 103.085938 Z M 204.246094 105.75 "/>
</g>
</svg>
