<?xml version="1.0" encoding="UTF-8"?>
<svg xmlns="http://www.w3.org/2000/svg" xmlns:xlink="http://www.w3.org/1999/xlink" width="290px" height="290px" viewBox="0 0 290 290" version="1.1">
<g id="surface1">
<path style=" stroke:none;fill-rule:nonzero;fill:rgb(0%,0%,0%);fill-opacity:1;" d="M 135.699219 14.816406 C 92.957031 18.0625 55.289062 41.261719 33.035156 78.015625 C 23.515625 93.777344 17.527344 111.460938 15.226562 130.816406 C 14.53125 136.613281 14.46875 151.808594 15.066406 157.609375 C 17.398438 179.234375 24.238281 198.648438 35.777344 216.269531 C 66.449219 263.113281 123.34375 285.273438 177.40625 271.371094 C 211.386719 262.640625 240.636719 240.386719 258.101562 209.964844 C 273.640625 182.953125 278.9375 151.746094 273.261719 120.886719 C 267.839844 91.445312 251.542969 63.832031 228.21875 44.570312 C 208.359375 28.148438 185.03125 18.25 159.183594 15.289062 C 154.203125 14.6875 140.679688 14.4375 135.699219 14.816406 Z M 119.78125 36.125 C 119.78125 36.25 118.679688 37.480469 117.292969 38.898438 C 108.246094 48.195312 99.703125 60.457031 93.460938 73.035156 L 90.941406 78.140625 L 73.226562 78.140625 C 63.453125 78.175781 55.476562 78.078125 55.476562 77.984375 C 55.476562 77.511719 61.121094 70.925781 64.621094 67.332031 C 78.992188 52.546875 95.730469 42.585938 115.527344 37.039062 C 119.71875 35.871094 119.78125 35.839844 119.78125 36.125 Z M 138.695312 57.054688 L 138.695312 78.175781 L 104.621094 78.175781 L 106.101562 75.398438 C 114.171875 60.554688 123.691406 48.734375 136.488281 37.730469 C 137.625 36.753906 138.570312 35.964844 138.632812 35.964844 C 138.664062 35.933594 138.695312 45.421875 138.695312 57.054688 Z M 158.523438 42.238281 C 168.136719 51.035156 178.507812 64.808594 184.84375 77.132812 L 185.378906 78.175781 L 151.304688 78.175781 L 151.304688 35.871094 L 153.289062 37.542969 C 154.363281 38.457031 156.726562 40.570312 158.523438 42.238281 Z M 174.472656 37.070312 C 193.449219 42.144531 210.976562 52.546875 225.253906 67.171875 C 228.660156 70.703125 234.523438 77.511719 234.523438 77.984375 C 234.523438 78.078125 226.546875 78.175781 216.804688 78.175781 L 199.058594 78.175781 L 197.515625 74.863281 C 191.96875 63.011719 182.320312 48.984375 172.863281 38.992188 C 171.414062 37.449219 170.21875 36.125 170.21875 36.03125 C 170.21875 35.964844 170.46875 35.964844 170.785156 36.0625 C 171.070312 36.15625 172.738281 36.597656 174.472656 37.070312 Z M 85.738281 90.71875 C 85.738281 90.84375 85.234375 92.453125 84.636719 94.28125 C 80.410156 106.699219 77.605469 121.265625 76.753906 135.292969 L 76.535156 138.695312 L 33.414062 138.695312 L 33.414062 137.339844 C 33.414062 133.304688 35.050781 123.09375 36.722656 116.757812 C 38.867188 108.71875 42.839844 98.472656 46.148438 92.546875 L 47.3125 90.46875 L 66.511719 90.46875 C 77.101562 90.46875 85.738281 90.59375 85.738281 90.71875 Z M 138.695312 114.582031 L 138.695312 138.695312 L 89.050781 138.695312 L 89.269531 134.785156 C 89.773438 125.835938 91.726562 114.140625 94.28125 105.03125 C 95.667969 100.082031 98.09375 92.800781 98.851562 91.382812 L 99.324219 90.46875 L 138.695312 90.46875 Z M 191.464844 92.105469 C 192.566406 94.628906 195.277344 103.042969 196.378906 107.488281 C 198.871094 117.324219 200.476562 127.976562 200.886719 136.898438 L 200.949219 138.695312 L 151.304688 138.695312 L 151.304688 90.46875 L 190.738281 90.46875 Z M 243.976562 92.738281 C 247.257812 98.695312 251.164062 108.78125 253.277344 116.757812 C 254.980469 123.3125 256.585938 133.148438 256.585938 137.183594 L 256.585938 138.695312 L 213.496094 138.695312 L 213.117188 133.558594 C 212.078125 119.910156 209.398438 106.132812 205.523438 94.722656 C 204.828125 92.675781 204.261719 90.84375 204.261719 90.71875 C 204.261719 90.59375 212.898438 90.46875 223.488281 90.46875 L 242.6875 90.46875 Z M 76.753906 154.675781 C 77.574219 168.074219 80.570312 183.738281 84.445312 195.277344 C 85.171875 197.324219 85.738281 199.121094 85.738281 199.21875 C 85.738281 199.3125 77.070312 199.375 66.449219 199.375 L 47.15625 199.375 L 45.203125 195.496094 C 39.117188 183.457031 35.460938 171.257812 33.886719 157.925781 C 33.632812 155.75 33.414062 153.386719 33.414062 152.660156 L 33.414062 151.304688 L 76.535156 151.304688 Z M 138.695312 175.355469 L 138.695312 199.40625 L 118.996094 199.40625 C 106.324219 199.375 99.199219 199.25 99.011719 199.058594 C 98.441406 198.492188 94.628906 186.546875 93.304688 181.25 C 91.191406 172.738281 89.617188 162.179688 89.113281 153.257812 L 89.015625 151.304688 L 138.695312 151.304688 Z M 200.917969 152.785156 C 200.035156 165.207031 198.839844 172.898438 196.191406 183.265625 C 194.992188 187.871094 191.496094 198.492188 190.957031 199.058594 C 190.769531 199.25 183.675781 199.375 171.003906 199.40625 L 151.304688 199.4375 L 151.304688 151.304688 L 201.015625 151.304688 Z M 256.585938 152.816406 C 256.585938 156.632812 255.042969 166.339844 253.402344 172.738281 C 251.542969 180.019531 248.421875 188.34375 244.988281 195.152344 L 242.875 199.375 L 223.550781 199.375 C 212.960938 199.375 204.261719 199.3125 204.261719 199.21875 C 204.261719 199.121094 204.828125 197.324219 205.554688 195.277344 C 209.304688 184.117188 212.109375 169.777344 213.117188 156.410156 L 213.496094 151.304688 L 256.585938 151.304688 Z M 92.894531 215.828125 C 99.011719 228.46875 107.804688 241.203125 117.070312 250.851562 C 118.617188 252.457031 119.8125 253.8125 119.75 253.90625 C 119.65625 253.96875 118.050781 253.625 116.125 253.089844 C 103.515625 249.621094 93.019531 244.828125 82.429688 237.640625 C 76.722656 233.796875 72.121094 230.046875 67.015625 225.066406 C 63.136719 221.28125 56.550781 213.875 55.761719 212.363281 C 55.476562 211.859375 56.390625 211.824219 73.195312 211.824219 L 90.941406 211.824219 Z M 138.695312 232.976562 L 138.695312 254.128906 L 137.054688 252.742188 C 124.667969 242.402344 113.949219 229.226562 106.261719 214.882812 L 104.621094 211.824219 L 138.695312 211.824219 Z M 184.054688 214.253906 C 175.890625 229.382812 166.59375 240.953125 153.449219 252.300781 L 151.304688 254.128906 L 151.304688 211.824219 L 185.378906 211.824219 Z M 234.238281 212.363281 C 233.449219 213.875 226.863281 221.28125 222.984375 225.066406 C 212.203125 235.5625 200.070312 243.441406 186.136719 248.988281 C 180.902344 251.101562 170.660156 254.285156 170.3125 253.9375 C 170.25 253.875 171.320312 252.648438 172.707031 251.195312 C 175.953125 247.761719 180.210938 242.6875 183.078125 238.839844 C 188.214844 231.9375 194.960938 220.808594 197.832031 214.410156 L 198.996094 211.824219 L 216.773438 211.824219 C 233.609375 211.824219 234.523438 211.859375 234.238281 212.363281 Z M 234.238281 212.363281 "/>
</g>
</svg>
