<?xml version="1.0" encoding="UTF-8"?>
<svg xmlns="http://www.w3.org/2000/svg" xmlns:xlink="http://www.w3.org/1999/xlink" width="290px" height="290px" viewBox="0 0 290 290" version="1.1">
<g id="surface1">
<path style=" stroke:none;fill-rule:nonzero;fill:rgb(0%,0%,0%);fill-opacity:1;" d="M 165.460938 35.847656 C 164.496094 36.492188 163.367188 38.023438 162.882812 39.230469 C 162.320312 40.4375 156.277344 60.660156 149.351562 84.179688 C 132.917969 140.003906 116 197.523438 108.429688 223.140625 C 105.042969 234.417969 102.304688 244.648438 102.304688 245.773438 C 102.304688 248.996094 105.285156 251.011719 113.421875 253.347656 C 121.640625 255.683594 124.136719 255.601562 126.070312 252.621094 C 126.792969 251.496094 132.835938 232.242188 139.441406 209.6875 C 146.128906 187.210938 156.519531 151.765625 162.722656 130.902344 C 168.84375 110.039062 176.980469 82.488281 180.765625 69.601562 C 184.554688 56.710938 187.695312 45.273438 187.695312 44.144531 C 187.695312 41.082031 184.714844 38.988281 176.820312 36.734375 C 168.441406 34.316406 167.714844 34.234375 165.460938 35.847656 Z M 165.460938 35.847656 "/>
<path style=" stroke:none;fill-rule:nonzero;fill:rgb(0%,0%,0%);fill-opacity:1;" d="M 77.65625 65.652344 C 76.367188 66.214844 58.402344 83.695312 37.621094 104.480469 C 2.660156 139.601562 0 142.421875 0 145 C 0 147.578125 2.660156 150.398438 37.699219 185.519531 C 58.402344 206.304688 76.367188 223.785156 77.65625 224.347656 C 81.441406 225.957031 83.695312 224.589844 93.363281 214.679688 C 101.015625 206.785156 102.304688 205.175781 102.304688 202.917969 C 102.304688 200.503906 99.726562 197.683594 74.753906 172.628906 L 47.207031 145 L 74.753906 117.371094 C 99.808594 92.316406 102.304688 89.496094 102.304688 87.082031 C 102.304688 84.824219 101.097656 83.214844 93.363281 75.320312 C 83.695312 65.410156 81.441406 64.042969 77.65625 65.652344 Z M 77.65625 65.652344 "/>
<path style=" stroke:none;fill-rule:nonzero;fill:rgb(0%,0%,0%);fill-opacity:1;" d="M 197.199219 74.835938 C 188.902344 83.132812 187.695312 84.746094 187.695312 87.082031 C 187.695312 89.496094 190.109375 92.15625 215.246094 117.371094 L 242.792969 145 L 215.246094 172.628906 C 190.191406 197.683594 187.695312 200.503906 187.695312 202.917969 C 187.695312 205.175781 188.902344 206.785156 196.636719 214.679688 C 206.304688 224.589844 208.558594 225.957031 212.34375 224.347656 C 213.632812 223.785156 231.597656 206.304688 252.378906 185.519531 C 287.339844 150.398438 290 147.578125 290 145 C 290 142.421875 287.261719 139.523438 251.496094 103.753906 C 213.632812 65.8125 212.988281 65.25 209.847656 65.25 C 206.867188 65.25 206.140625 65.8125 197.199219 74.835938 Z M 197.199219 74.835938 "/>
</g>
</svg>
