<svg xmlns="http://www.w3.org/2000/svg" version="1.1" xmlns:xlink="http://www.w3.org/1999/xlink" xmlns:svgjs="http://svgjs.dev/svgjs" width="1000" height="623" viewBox="0 0 1000 623"><g transform="matrix(1,0,0,1,-0.6060370528055614,0.2522267206477409)"><svg viewBox="0 0 396 247" data-background-color="#ffffff" preserveAspectRatio="xMidYMid meet" height="623" width="1000" xmlns="http://www.w3.org/2000/svg" xmlns:xlink="http://www.w3.org/1999/xlink"><defs></defs><g id="tight-bounds" transform="matrix(1,0,0,1,0.23999067291100573,-0.09999999999999432)"><svg viewBox="0 0 395.52 247.2" height="247.2" width="395.52"><g><svg></svg></g><g><svg viewBox="0 0 395.52 247.2" height="247.2" width="395.52"><g><path d="M55.039 247.2l60.188-104.249h165.066l60.188 104.249zM197.76 0l60.188 104.249-120.376 0z" fill="#ec9131" data-fill-palette-color="tertiary"></path></g><g transform="matrix(1,0,0,1,0,109.77815787163051)"><svg viewBox="0 0 395.52 27.64368425673896" height="27.64368425673896" width="395.52"><g><svg viewBox="0 0 395.52 27.64368425673896" height="27.64368425673896" width="395.52"><g><svg viewBox="0 0 395.52 27.64368425673896" height="27.64368425673896" width="395.52"><g><svg viewBox="0 0 395.52 27.64368425673896" height="27.64368425673896" width="395.52"><g><svg viewBox="0 0 395.52 27.64368425673896" height="27.64368425673896" width="395.52"><g transform="matrix(1,0,0,1,0,0)"><svg width="395.52" viewBox="4.75 -38.29999923706055 569.4099731445312 39.79999923706055" height="27.64368425673896" data-palette-color="#ec9131"><path d="M4.75 0L4.75-36.8 12-36.8 12 0 4.75 0ZM28.5 0L21.5 0 21.5-38.3 21.55-38.3 42-9.3 38.9-10 59.3-38.3 59.4-38.3 59.4 0 52.15 0 52.15-21.95 52.6-18.2 40.15-0.5 40.05-0.5 27.25-18.2 28.5-21.65 28.5 0ZM68.9-36.8L80.05-36.8Q83.5-36.8 86.2-35.93 88.9-35.05 90.72-33.43 92.55-31.8 93.5-29.53 94.45-27.25 94.45-24.4L94.45-24.4Q94.45-22.15 93.77-19.9 93.1-17.65 91.57-15.8 90.05-13.95 87.55-12.83 85.05-11.7 81.35-11.7L81.35-11.7 76.15-11.7 76.15 0 68.9 0 68.9-36.8ZM76.15-18.7L81.3-18.7Q82.95-18.7 84.05-19.25 85.15-19.8 85.77-20.65 86.4-21.5 86.67-22.43 86.95-23.35 86.95-24.15L86.95-24.15Q86.95-24.75 86.77-25.68 86.6-26.6 86.05-27.55 85.5-28.5 84.37-29.15 83.25-29.8 81.35-29.8L81.35-29.8 76.15-29.8 76.15-18.7ZM79.45-14L88.1-14.2 97.2 0 88.75 0 79.45-14ZM109.69-36.8L109.69-13.6Q109.69-11.85 110.74-10.25 111.79-8.65 113.52-7.65 115.24-6.65 117.29-6.65L117.29-6.65Q119.54-6.65 121.29-7.65 123.04-8.65 124.07-10.25 125.09-11.85 125.09-13.6L125.09-13.6 125.09-36.8 132.24-36.8 132.24-13.45Q132.24-9.4 130.24-6.28 128.24-3.15 124.84-1.38 121.44 0.4 117.29 0.4L117.29 0.4 117.29 0.4Q113.19 0.4 109.82-1.38 106.44-3.15 104.44-6.28 102.44-9.4 102.44-13.45L102.44-13.45 102.44-36.8 109.69-36.8ZM140.99 0L140.99-36.8 148.24-36.8 148.24-7 165.54-7 165.54 0 140.99 0ZM196.74-36.8L203.99-36.8 203.99 0 196.74 0 196.74-14.95 180.29-14.95 180.29 0 173.04 0 173.04-36.8 180.29-36.8 180.29-21.95 196.74-21.95 196.74-36.8ZM216.49 0L209.34 0 225.94-38.25 226.34-38.25 242.94 0 234.54 0 223.94-26.9 229.19-30.5 216.49 0ZM218.44-7.2L220.69-13.3 231.74-13.3 234.29-7.2 218.44-7.2ZM270.68-33.45L267.93-27.9Q265.83-29.05 263.66-29.8 261.48-30.55 259.58-30.55L259.58-30.55Q257.23-30.55 255.88-29.6 254.53-28.65 254.53-26.75L254.53-26.75Q254.53-25.45 255.56-24.43 256.58-23.4 258.21-22.6 259.83-21.8 261.58-21.15L261.58-21.15Q263.18-20.55 264.76-19.73 266.33-18.9 267.58-17.68 268.83-16.45 269.58-14.63 270.33-12.8 270.33-10.15L270.33-10.15Q270.33-7.35 268.88-4.95 267.43-2.55 264.63-1.07 261.83 0.4 257.73 0.4L257.73 0.4Q255.63 0.4 253.46-0.03 251.28-0.45 249.18-1.33 247.08-2.2 245.13-3.55L245.13-3.55 248.33-9.2Q249.63-8.25 251.16-7.53 252.68-6.8 254.23-6.4 255.78-6 257.08-6L257.08-6Q258.38-6 259.71-6.38 261.03-6.75 261.91-7.65 262.78-8.55 262.78-10.15L262.78-10.15Q262.78-11.25 262.06-12.15 261.33-13.05 260.11-13.8 258.88-14.55 257.43-15.1L257.43-15.1Q255.73-15.75 253.93-16.6 252.13-17.45 250.56-18.68 248.98-19.9 248.01-21.73 247.03-23.55 247.03-26.2L247.03-26.2Q247.03-29.4 248.46-31.75 249.88-34.1 252.48-35.48 255.08-36.85 258.48-37L258.48-37Q262.93-37 265.71-35.95 268.48-34.9 270.68-33.45L270.68-33.45ZM310.58 1.5L310.38 1.5 282.48-23.7 284.63-22.5 284.78 0 277.43 0 277.43-38.25 277.73-38.25 305.03-13.15 303.43-13.85 303.28-36.8 310.58-36.8 310.58 1.5ZM323.08 0L315.93 0 332.53-38.25 332.93-38.25 349.53 0 341.13 0 330.53-26.9 335.78-30.5 323.08 0ZM325.03-7.2L327.28-13.3 338.33-13.3 340.88-7.2 325.03-7.2ZM349.38-29.8L349.38-36.8 374.18-36.8 374.18-29.8 365.23-29.8 365.23 0 357.98 0 357.98-29.8 349.38-29.8ZM404.77-36.8L404.77-23.7 404.57-21.85 405.67-23.25 417.67-36.8 427.07-36.8 411.87-20.3 427.12 0 417.92 0 406.57-15.7 404.77-13.9 404.77 0 397.42 0 397.42-36.8 404.77-36.8ZM435.62 0L428.47 0 445.07-38.25 445.47-38.25 462.07 0 453.67 0 443.07-26.9 448.32-30.5 435.62 0ZM437.57-7.2L439.82-13.3 450.87-13.3 453.42-7.2 437.57-7.2ZM474.42 0L467.42 0 467.42-38.3 467.47-38.3 487.92-9.3 484.82-10 505.22-38.3 505.32-38.3 505.32 0 498.07 0 498.07-21.95 498.52-18.2 486.07-0.5 485.97-0.5 473.17-18.2 474.42-21.65 474.42 0ZM517.81 0L510.66 0 527.26-38.25 527.66-38.25 544.26 0 535.86 0 525.26-26.9 530.51-30.5 517.81 0ZM519.76-7.2L522.01-13.3 533.06-13.3 535.61-7.2 519.76-7.2ZM549.61 0L549.61-36.8 556.86-36.8 556.86-7 574.16-7 574.16 0 549.61 0Z" opacity="1" transform="matrix(1,0,0,1,0,0)" fill="#ec9131" class="undefined-text-0" data-fill-palette-color="primary" id="text-0"></path></svg></g></svg></g></svg></g></svg></g><g></g></svg></g></svg></g></svg></g></svg><rect width="395.52" height="247.2" fill="none" stroke="none" visibility="hidden"></rect></g></svg></g></svg>